solid RPLidar_box_3
facet normal 8.882731628928295e-18 1.0 5.7613892796395406e-18
  outer loop
    vertex 4.349999999999999 2.9999999999999996 10.0
    vertex 45.050000000000004 2.999999999999999 7.999999999999999
    vertex 4.349999999999999 2.9999999999999996 7.999999999999999
  endloop
endfacet
facet normal 8.882731628928295e-18 1.0 5.7613892796395406e-18
  outer loop
    vertex 45.050000000000004 2.999999999999999 7.999999999999999
    vertex 4.349999999999999 2.9999999999999996 10.0
    vertex 45.050000000000004 2.999999999999999 10.0
  endloop
endfacet
facet normal -1.0 0.0 0.0
  outer loop
    vertex -0.05000000000000097 14.0 10.0
    vertex -0.05000000000000097 12.0 7.999999999999999
    vertex -0.05000000000000097 12.0 10.0
  endloop
endfacet
facet normal -1.0 0.0 0.0
  outer loop
    vertex -0.05000000000000097 12.0 7.999999999999999
    vertex -0.05000000000000097 14.0 10.0
    vertex -0.05000000000000097 14.0 7.999999999999999
  endloop
endfacet
facet normal 0.0 0.0 -1.0
  outer loop
    vertex 45.050000000000004 2.999999999999999 7.999999999999999
    vertex 4.349999999999999 1.9999999999999998 7.999999999999999
    vertex 4.349999999999999 2.9999999999999996 7.999999999999999
  endloop
endfacet
facet normal 0.0 0.0 -1.0
  outer loop
    vertex 4.349999999999999 1.9999999999999998 7.999999999999999
    vertex 45.050000000000004 2.999999999999999 7.999999999999999
    vertex 45.050000000000004 1.9999999999999996 7.999999999999999
  endloop
endfacet
facet normal 1.0 0.0 0.0
  outer loop
    vertex 1.0499999999999987 14.0 7.999999999999999
    vertex 1.0499999999999987 12.0 10.0
    vertex 1.0499999999999987 12.0 7.999999999999999
  endloop
endfacet
facet normal 1.0 0.0 0.0
  outer loop
    vertex 1.0499999999999987 12.0 10.0
    vertex 1.0499999999999987 14.0 7.999999999999999
    vertex 1.0499999999999987 14.0 10.0
  endloop
endfacet
facet normal -1.0 0.0 0.0
  outer loop
    vertex 4.349999999999999 22.000000000000004 10.0
    vertex 4.349999999999999 21.0 7.999999999999999
    vertex 4.349999999999999 21.0 10.0
  endloop
endfacet
facet normal -1.0 0.0 0.0
  outer loop
    vertex 4.349999999999999 21.0 7.999999999999999
    vertex 4.349999999999999 22.000000000000004 10.0
    vertex 4.349999999999999 22.000000000000004 7.999999999999999
  endloop
endfacet
facet normal 1.0 0.0 0.0
  outer loop
    vertex 45.050000000000004 2.999999999999999 7.999999999999999
    vertex 45.050000000000004 1.9999999999999998 10.0
    vertex 45.050000000000004 1.9999999999999996 7.999999999999999
  endloop
endfacet
facet normal 1.0 0.0 0.0
  outer loop
    vertex 45.050000000000004 1.9999999999999998 10.0
    vertex 45.050000000000004 2.999999999999999 7.999999999999999
    vertex 45.050000000000004 2.999999999999999 10.0
  endloop
endfacet
facet normal 0.0 1.0 0.0
  outer loop
    vertex 4.349999999999999 22.000000000000004 10.0
    vertex 45.05 22.000000000000004 7.999999999999999
    vertex 4.349999999999999 22.000000000000004 7.999999999999999
  endloop
endfacet
facet normal 0.0 1.0 0.0
  outer loop
    vertex 45.05 22.000000000000004 7.999999999999999
    vertex 4.349999999999999 22.000000000000004 10.0
    vertex 45.050000000000004 22.000000000000004 10.0
  endloop
endfacet
facet normal 0.0 -1.0 0.0
  outer loop
    vertex 45.05 21.0 10.0
    vertex 4.349999999999999 21.0 7.999999999999999
    vertex 45.05 21.0 7.999999999999999
  endloop
endfacet
facet normal 0.0 -1.0 0.0
  outer loop
    vertex 4.349999999999999 21.0 7.999999999999999
    vertex 45.05 21.0 10.0
    vertex 4.349999999999999 21.0 10.0
  endloop
endfacet
facet normal -4.330415360177974e-18 -1.0 8.812395257962177e-17
  outer loop
    vertex 45.050000000000004 1.9999999999999998 10.0
    vertex 4.349999999999999 1.9999999999999998 7.999999999999999
    vertex 45.050000000000004 1.9999999999999996 7.999999999999999
  endloop
endfacet
facet normal -4.330415360177974e-18 -1.0 8.812395257962177e-17
  outer loop
    vertex 4.349999999999999 1.9999999999999998 7.999999999999999
    vertex 45.050000000000004 1.9999999999999998 10.0
    vertex 4.349999999999999 1.9999999999999998 10.0
  endloop
endfacet
facet normal -6.409014733063402e-16 -1.0 0.0
  outer loop
    vertex -0.05000000000000097 12.0 11.0
    vertex -2.2500000000000013 12.000000000000002 10.0
    vertex -0.05000000000000097 12.0 10.0
  endloop
endfacet
facet normal -6.409014733063402e-16 -1.0 0.0
  outer loop
    vertex -2.2500000000000013 12.000000000000002 10.0
    vertex -0.05000000000000097 12.0 11.0
    vertex -2.2500000000000013 12.000000000000002 11.0
  endloop
endfacet
facet normal 0.0 -1.0 0.0
  outer loop
    vertex 1.9499999999999993 1.9999999999999998 10.0
    vertex -0.05000000000000097 1.9999999999999998 6.0
    vertex 1.9499999999999993 1.9999999999999998 6.0
  endloop
endfacet
facet normal 0.0 -1.0 0.0
  outer loop
    vertex -0.05000000000000097 1.9999999999999998 6.0
    vertex 1.9499999999999993 1.9999999999999998 10.0
    vertex -0.05000000000000097 1.9999999999999998 10.0
  endloop
endfacet
facet normal 0.0 -1.0 0.0
  outer loop
    vertex 47.25000000000001 0.0 11.0
    vertex -0.05000000000000097 0.0 10.0
    vertex 47.25000000000001 0.0 10.0
  endloop
endfacet
facet normal 0.0 -1.0 0.0
  outer loop
    vertex -0.05000000000000097 0.0 10.0
    vertex 47.25000000000001 0.0 11.0
    vertex -0.05000000000000097 0.0 11.0
  endloop
endfacet
facet normal 0.0 1.0 0.0
  outer loop
    vertex -0.05000000000000097 12.0 7.999999999999999
    vertex 1.0499999999999987 12.0 6.0
    vertex -0.05000000000000097 12.0 6.0
  endloop
endfacet
facet normal 0.0 1.0 0.0
  outer loop
    vertex 1.0499999999999987 12.0 6.0
    vertex -0.05000000000000097 12.0 7.999999999999999
    vertex 1.0499999999999987 12.0 7.999999999999999
  endloop
endfacet
facet normal 0.0 0.0 -1.0
  outer loop
    vertex 1.0499999999999987 12.0 6.0
    vertex -0.05000000000000097 1.9999999999999998 6.0
    vertex -0.05000000000000097 12.0 6.0
  endloop
endfacet
facet normal 0.0 0.0 -1.0
  outer loop
    vertex -0.05000000000000097 1.9999999999999998 6.0
    vertex 1.0499999999999987 12.0 6.0
    vertex 1.9499999999999993 1.9999999999999998 6.0
  endloop
endfacet
facet normal 0.0 0.0 -1.0
  outer loop
    vertex 1.9499999999999993 1.9999999999999998 6.0
    vertex 1.0499999999999987 12.0 6.0
    vertex 1.9499999999999993 12.0 6.0
  endloop
endfacet
facet normal 0.0 0.0 -1.0
  outer loop
    vertex 45.05 22.000000000000004 7.999999999999999
    vertex 4.349999999999999 21.0 7.999999999999999
    vertex 4.349999999999999 22.000000000000004 7.999999999999999
  endloop
endfacet
facet normal 0.0 0.0 -1.0
  outer loop
    vertex 4.349999999999999 21.0 7.999999999999999
    vertex 45.05 22.000000000000004 7.999999999999999
    vertex 45.05 21.0 7.999999999999999
  endloop
endfacet
facet normal 0.0 0.0 1.0
  outer loop
    vertex 47.25000000000001 0.0 11.0
    vertex -0.05000000000000097 12.0 11.0
    vertex -0.05000000000000097 0.0 11.0
  endloop
endfacet
facet normal 0.0 0.0 1.0
  outer loop
    vertex -0.05000000000000097 12.0 11.0
    vertex -2.2500000000000013 24.0 11.0
    vertex -2.2500000000000013 12.000000000000002 11.0
  endloop
endfacet
facet normal 0.0 0.0 1.0
  outer loop
    vertex -2.2500000000000013 24.0 11.0
    vertex -0.05000000000000097 12.0 11.0
    vertex 47.25000000000001 24.0 11.0
  endloop
endfacet
facet normal 0.0 0.0 1.0
  outer loop
    vertex 47.25000000000001 24.0 11.0
    vertex -0.05000000000000097 12.0 11.0
    vertex 47.25000000000001 0.0 11.0
  endloop
endfacet
facet normal 0.0 0.0 -1.0
  outer loop
    vertex 1.0499999999999987 14.0 7.999999999999999
    vertex -0.05000000000000097 12.0 7.999999999999999
    vertex -0.05000000000000097 14.0 7.999999999999999
  endloop
endfacet
facet normal 0.0 0.0 -1.0
  outer loop
    vertex -0.05000000000000097 12.0 7.999999999999999
    vertex 1.0499999999999987 14.0 7.999999999999999
    vertex 1.0499999999999987 12.0 7.999999999999999
  endloop
endfacet
facet normal -1.0 0.0 0.0
  outer loop
    vertex -2.2500000000000013 24.0 11.0
    vertex -2.2500000000000013 12.000000000000002 10.0
    vertex -2.2500000000000013 12.000000000000002 11.0
  endloop
endfacet
facet normal -1.0 0.0 0.0
  outer loop
    vertex -2.2500000000000013 12.000000000000002 10.0
    vertex -2.2500000000000013 24.0 11.0
    vertex -2.2500000000000013 24.0 10.0
  endloop
endfacet
facet normal 0.0 1.0 0.0
  outer loop
    vertex -0.05000000000000097 14.0 10.0
    vertex 1.0499999999999987 14.0 7.999999999999999
    vertex -0.05000000000000097 14.0 7.999999999999999
  endloop
endfacet
facet normal 0.0 1.0 0.0
  outer loop
    vertex 1.0499999999999987 14.0 7.999999999999999
    vertex -0.05000000000000097 14.0 10.0
    vertex 1.0499999999999987 14.0 10.0
  endloop
endfacet
facet normal -1.0 0.0 0.0
  outer loop
    vertex 4.349999999999999 2.9999999999999996 10.0
    vertex 4.349999999999999 1.9999999999999998 7.999999999999999
    vertex 4.349999999999999 1.9999999999999998 10.0
  endloop
endfacet
facet normal -1.0 0.0 0.0
  outer loop
    vertex 4.349999999999999 1.9999999999999998 7.999999999999999
    vertex 4.349999999999999 2.9999999999999996 10.0
    vertex 4.349999999999999 2.9999999999999996 7.999999999999999
  endloop
endfacet
facet normal 0.0 1.0 0.0
  outer loop
    vertex -2.2500000000000013 24.0 11.0
    vertex 47.25000000000001 24.0 10.0
    vertex -2.2500000000000013 24.0 10.0
  endloop
endfacet
facet normal 0.0 1.0 0.0
  outer loop
    vertex 47.25000000000001 24.0 10.0
    vertex -2.2500000000000013 24.0 11.0
    vertex 47.25000000000001 24.0 11.0
  endloop
endfacet
facet normal -1.0 0.0 0.0
  outer loop
    vertex -0.05000000000000097 12.0 11.0
    vertex -0.05000000000000097 0.0 10.0
    vertex -0.05000000000000097 0.0 11.0
  endloop
endfacet
facet normal -1.0 0.0 0.0
  outer loop
    vertex -0.05000000000000097 0.0 10.0
    vertex -0.05000000000000097 12.0 11.0
    vertex -0.05000000000000097 1.9999999999999998 10.0
  endloop
endfacet
facet normal -1.0 0.0 0.0
  outer loop
    vertex -0.05000000000000097 1.9999999999999998 10.0
    vertex -0.05000000000000097 12.0 11.0
    vertex -0.05000000000000097 1.9999999999999998 6.0
  endloop
endfacet
facet normal -1.0 0.0 0.0
  outer loop
    vertex -0.05000000000000097 1.9999999999999998 6.0
    vertex -0.05000000000000097 12.0 11.0
    vertex -0.05000000000000097 12.0 6.0
  endloop
endfacet
facet normal -1.0 0.0 0.0
  outer loop
    vertex -0.05000000000000097 12.0 6.0
    vertex -0.05000000000000097 12.0 11.0
    vertex -0.05000000000000097 12.0 10.0
  endloop
endfacet
facet normal -1.0 0.0 0.0
  outer loop
    vertex -0.05000000000000097 12.0 6.0
    vertex -0.05000000000000097 12.0 10.0
    vertex -0.05000000000000097 12.0 7.999999999999999
  endloop
endfacet
facet normal 1.0 0.0 0.0
  outer loop
    vertex 47.25000000000001 24.0 10.0
    vertex 47.25000000000001 0.0 11.0
    vertex 47.25000000000001 0.0 10.0
  endloop
endfacet
facet normal 1.0 0.0 0.0
  outer loop
    vertex 47.25000000000001 0.0 11.0
    vertex 47.25000000000001 24.0 10.0
    vertex 47.25000000000001 24.0 11.0
  endloop
endfacet
facet normal 1.0 -3.101963130802684e-15 -1.5509815654013432e-15
  outer loop
    vertex 45.05 22.000000000000004 7.999999999999999
    vertex 45.05 21.0 10.0
    vertex 45.05 21.0 7.999999999999999
  endloop
endfacet
facet normal 1.0 -3.101963130802684e-15 -1.5509815654013432e-15
  outer loop
    vertex 45.05 21.0 10.0
    vertex 45.05 22.000000000000004 7.999999999999999
    vertex 45.050000000000004 22.000000000000004 10.0
  endloop
endfacet
facet normal 0.0 0.0 -1.0
  outer loop
    vertex -2.2500000000000013 24.0 10.0
    vertex 4.349999999999999 22.000000000000004 10.0
    vertex -2.2500000000000013 12.000000000000002 10.0
  endloop
endfacet
facet normal 0.0 0.0 -1.0
  outer loop
    vertex 4.349999999999999 22.000000000000004 10.0
    vertex -2.2500000000000013 24.0 10.0
    vertex 47.25000000000001 24.0 10.0
  endloop
endfacet
facet normal 0.0 0.0 -1.0
  outer loop
    vertex -2.2500000000000013 12.000000000000002 10.0
    vertex 4.349999999999999 22.000000000000004 10.0
    vertex -0.05000000000000097 14.0 10.0
  endloop
endfacet
facet normal 0.0 0.0 -1.0
  outer loop
    vertex -0.05000000000000097 14.0 10.0
    vertex 4.349999999999999 22.000000000000004 10.0
    vertex 1.0499999999999987 14.0 10.0
  endloop
endfacet
facet normal 0.0 0.0 -1.0
  outer loop
    vertex 1.0499999999999987 14.0 10.0
    vertex 4.349999999999999 22.000000000000004 10.0
    vertex 1.0499999999999987 12.0 10.0
  endloop
endfacet
facet normal 0.0 0.0 -1.0
  outer loop
    vertex 1.0499999999999987 12.0 10.0
    vertex 4.349999999999999 22.000000000000004 10.0
    vertex 1.9499999999999993 12.0 10.0
  endloop
endfacet
facet normal 0.0 0.0 -1.0
  outer loop
    vertex 1.9499999999999993 12.0 10.0
    vertex 4.349999999999999 22.000000000000004 10.0
    vertex 1.9499999999999993 1.9999999999999998 10.0
  endloop
endfacet
facet normal 0.0 0.0 -1.0
  outer loop
    vertex 4.349999999999999 22.000000000000004 10.0
    vertex 47.25000000000001 24.0 10.0
    vertex 45.050000000000004 22.000000000000004 10.0
  endloop
endfacet
facet normal 0.0 0.0 -1.0
  outer loop
    vertex 45.050000000000004 22.000000000000004 10.0
    vertex 47.25000000000001 24.0 10.0
    vertex 45.050000000000004 2.999999999999999 10.0
  endloop
endfacet
facet normal 0.0 0.0 -1.0
  outer loop
    vertex 45.050000000000004 2.999999999999999 10.0
    vertex 47.25000000000001 24.0 10.0
    vertex 45.050000000000004 1.9999999999999998 10.0
  endloop
endfacet
facet normal 0.0 0.0 -1.0
  outer loop
    vertex 1.9499999999999993 1.9999999999999998 10.0
    vertex -0.05000000000000097 0.0 10.0
    vertex -0.05000000000000097 1.9999999999999998 10.0
  endloop
endfacet
facet normal 0.0 0.0 -1.0
  outer loop
    vertex -0.05000000000000097 0.0 10.0
    vertex 1.9499999999999993 1.9999999999999998 10.0
    vertex 47.25000000000001 0.0 10.0
  endloop
endfacet
facet normal 0.0 0.0 -1.0
  outer loop
    vertex 47.25000000000001 0.0 10.0
    vertex 1.9499999999999993 1.9999999999999998 10.0
    vertex 4.349999999999999 1.9999999999999998 10.0
  endloop
endfacet
facet normal 0.0 0.0 -1.0
  outer loop
    vertex 4.349999999999999 1.9999999999999998 10.0
    vertex 1.9499999999999993 1.9999999999999998 10.0
    vertex 4.349999999999999 22.000000000000004 10.0
  endloop
endfacet
facet normal 0.0 0.0 -1.0
  outer loop
    vertex 4.349999999999999 1.9999999999999998 10.0
    vertex 4.349999999999999 22.000000000000004 10.0
    vertex 4.349999999999999 21.0 10.0
  endloop
endfacet
facet normal 0.0 0.0 -1.0
  outer loop
    vertex 4.349999999999999 1.9999999999999998 10.0
    vertex 4.349999999999999 21.0 10.0
    vertex 4.349999999999999 2.9999999999999996 10.0
  endloop
endfacet
facet normal 0.0 0.0 -1.0
  outer loop
    vertex 47.25000000000001 0.0 10.0
    vertex 4.349999999999999 1.9999999999999998 10.0
    vertex 45.050000000000004 1.9999999999999998 10.0
  endloop
endfacet
facet normal 0.0 0.0 -1.0
  outer loop
    vertex 47.25000000000001 0.0 10.0
    vertex 45.050000000000004 1.9999999999999998 10.0
    vertex 47.25000000000001 24.0 10.0
  endloop
endfacet
facet normal 0.0 0.0 -1.0
  outer loop
    vertex 45.05 21.0 10.0
    vertex 4.349999999999999 2.9999999999999996 10.0
    vertex 4.349999999999999 21.0 10.0
  endloop
endfacet
facet normal 0.0 0.0 -1.0
  outer loop
    vertex 4.349999999999999 2.9999999999999996 10.0
    vertex 45.05 21.0 10.0
    vertex 45.050000000000004 2.999999999999999 10.0
  endloop
endfacet
facet normal 0.0 0.0 -1.0
  outer loop
    vertex 45.050000000000004 2.999999999999999 10.0
    vertex 45.05 21.0 10.0
    vertex 45.050000000000004 22.000000000000004 10.0
  endloop
endfacet
facet normal 0.0 0.0 -1.0
  outer loop
    vertex -0.05000000000000097 12.0 10.0
    vertex -2.2500000000000013 12.000000000000002 10.0
    vertex -0.05000000000000097 14.0 10.0
  endloop
endfacet
facet normal 0.0 1.0 0.0
  outer loop
    vertex 1.0499999999999987 12.0 7.999999999999999
    vertex 1.9499999999999993 12.0 6.0
    vertex 1.0499999999999987 12.0 6.0
  endloop
endfacet
facet normal 0.0 1.0 0.0
  outer loop
    vertex 1.9499999999999993 12.0 6.0
    vertex 1.0499999999999987 12.0 7.999999999999999
    vertex 1.9499999999999993 12.0 10.0
  endloop
endfacet
facet normal 0.0 1.0 0.0
  outer loop
    vertex 1.9499999999999993 12.0 10.0
    vertex 1.0499999999999987 12.0 7.999999999999999
    vertex 1.0499999999999987 12.0 10.0
  endloop
endfacet
facet normal 1.0 0.0 0.0
  outer loop
    vertex 1.9499999999999993 12.0 6.0
    vertex 1.9499999999999993 1.9999999999999998 10.0
    vertex 1.9499999999999993 1.9999999999999998 6.0
  endloop
endfacet
facet normal 1.0 0.0 0.0
  outer loop
    vertex 1.9499999999999993 1.9999999999999998 10.0
    vertex 1.9499999999999993 12.0 6.0
    vertex 1.9499999999999993 12.0 10.0
  endloop
endfacet
endsolid RPLidar_box_3
